<?xml version="1.0" encoding="UTF-8"?>
<!-- Generator: Adobe Illustrator 23.0.4, SVG Export Plug-In . SVG Version: 6.00 Build 0)  -->
<svg version="1.1" id="Layer_1" xmlns="http://www.w3.org/2000/svg" xmlns:xlink="http://www.w3.org/1999/xlink" x="0px" y="0px" viewBox="0 0 141 45" enable-background="new 0 0 141 45" xml:space="preserve">
<path fill="#FF2932" d="M141,0H0.0400088L0,44.9580193L141,45V0z M6.3003349,38.9784927L6.2688341,6.322144l128.7340393-0.040432  l0.0314941,32.6563492L6.3003349,38.9784927z"/>
<path fill="#FF2932" d="M19.7963543,14.640192l-6.2456903,15.4035988l5.527627-0.0187302l0.830349-2.3135777l4.8935604,0.051321  l0.8008385,2.3306847l5.7769241,0.0030804l-6.0559826-15.4751072L19.7963543,14.640192z M21.2546921,23.8103409l1.2104969-3.7874012  l1.30406,3.7561893L21.2546921,23.8103409z M42.2512283,19.2421646L38.479435,19.288908l-0.07621,10.9197826l-5.153759,0.0514393  l-0.0374603-11.0552521l-3.7718678,0.0467358l0.0077763-4.3949585l12.8110962-0.0095253L42.2512283,19.2421646z   M58.7799301,14.8208609l-4.325573,10.8929739L48.8430252,25.72159L48.8055649,14.666338l-5.2784157,0.0406113l0.018856,15.5748653  l14.6405182-0.0652561l0.830349-2.3135777l4.8935547,0.0513973l0.8008385,2.3306847l5.6522751-0.0078239l-6.0559845-15.4751091  L58.7799301,14.8208609z M60.362915,24.001915l1.2105064-3.7874775l1.3040543,3.7562656L60.362915,24.001915z   M81.3703613,19.3090897l-3.7717972,0.0467434l-0.07621,10.9197826l-5.1537552,0.0514393l-0.0375366-11.0552597  l-3.7717972,0.0467434l0.0077057-4.3949652l12.8110962-0.0095253L81.3703613,19.3090897z M94.2812119,25.3366928  c0.0483246,0.8832932-0.1526566,1.7448521-0.5919495,2.459959c-0.3147202,0.7260056-0.8677673,1.3056355-1.4099808,1.7605324  c-0.5421295,0.4549046-1.3226624,0.7634258-2.1031876,1.0718689c-0.6341553,0.0701237-1.3928757,0.1293468-2.1515961,0.18857  c-0.6231689-0.0545197-1.2463379-0.1090393-1.8694992-0.1635609c-0.6232452-0.0545254-1.2355118-0.2336941-1.7122192-0.5266075  c-0.6122665-0.1790905-1.0890503-0.4720097-1.5657578-0.7649231c-0.4767914-0.2928429-0.9534988-0.5857544-1.2946548-0.9924107  l3.1937408-3.4882851c0.3412323,0.406662,0.8179474,0.6994972,1.4193039,1.003315s1.213623,0.4829884,1.8477707,0.4128647  c0.2492218,0.0218048,0.5094223-0.0810337,0.7696228-0.1838722c0.2601318-0.1028442,0.4065857-0.3412361,0.3037415-0.6013622  c0.01091-0.124649-0.1027603-0.2601967-0.0918503-0.3848457c-0.1137466-0.1355553-0.2383957-0.1464596-0.4767914-0.2928429  c-0.2383194-0.146452-0.4876175-0.1682625-0.8506546-0.3256283c-0.3629684-0.1573582-0.8506546-0.3256283-1.3382721-0.4938908  c-0.4876175-0.1681881-0.9753113-0.3364582-1.4520187-0.6293697c-0.4767075-0.2929134-0.9534988-0.5857544-1.3055573-0.8677616  c-0.3412323-0.4066639-0.6823883-0.813242-0.8989716-1.2089996c-0.2056808-0.5203285-0.2867203-1.0297527-0.3458633-1.7884674  c-0.0374146-1.0080185,0.1526642-1.7449303,0.5919571-2.4600372c0.4393692-0.7150993,0.8568649-1.1809864,1.5236435-1.6249847  c0.6668625-0.4439917,1.3227463-0.7634192,2.0923691-0.9472914c0.7696228-0.183795,1.5283432-0.2430191,2.2870636-0.3022423  c1.0080185-0.0374126,2.1188049,0.1853704,3.0831985,0.646553c1.0999603,0.3473625,1.9288025,0.9222889,2.7358475,1.7464361  l-3.1829224,3.3636284c-0.341156-0.4065781-0.8070374-0.8241463-1.2946472-0.9924088  c-0.4876938-0.168272-0.9753036-0.3365345-1.3491745-0.3692436c-0.3739471-0.0327168-0.6341476,0.0701218-0.8942795,0.172966  c-0.2602005,0.1028385-0.406662,0.3412304-0.3038177,0.6013565c-0.0218048,0.2492981,0.0919342,0.3848534,0.3303299,0.5313129  c0.2383118,0.146452,0.6013641,0.3037395,1.213623,0.4829082c0.6122589,0.1791706,1.0999527,0.3474407,1.7013092,0.6512585  c0.6122665,0.1790905,1.213623,0.4829082,1.6795044,0.9004765c0.4658127,0.4174843,0.9316864,0.8350525,1.2619476,1.3662796  C94.1628494,23.8191776,94.3575439,24.4642277,94.2812119,25.3366928z M108.5443268,25.9565353l-0.0077057,4.3950424  l-12.8110886,0.0094471l0.1323471-4.384058l5.7425156-6.7818699l-5.527626,0.0187302l-0.0031281-4.2703094l12.3125-0.0531464  l0.046814,3.7718735l-6.16008,7.247673L108.5443268,25.9565353z M126.7349701,19.0078602  c-0.4112854-1.0407295-0.969101-1.8430729-1.786972-2.5425644c-0.8179474-0.6994972-1.6467896-1.2744236-2.7467499-1.6217861  c-1.0998764-0.3474321-2.2107315-0.5702219-3.4679718-0.5546131c-1.2573166,0.0156021-2.4008102,0.1667652-3.4415436,0.5780478  c-1.1653748,0.4003763-1.96772,0.9581957-2.7809601,1.6405859c-0.8241501,0.8070412-1.3989944,1.6358147-1.8601761,2.6002121  c-0.4611053,0.9644051-0.6838913,2.0752621-0.6682816,3.3325024c0.0155258,1.2572327,0.166687,2.4008064,0.7244263,3.2031441  c0.4113617,1.0407352,0.9581985,1.96772,1.7761383,2.6672173c0.8179474,0.6994991,1.6467972,1.2743473,2.7466736,1.6217804  c1.0999527,0.3474388,2.2107315,0.5702229,3.4680481,0.5546207c1.2572403-0.0156097,2.4008179-0.1667652,3.4415436-0.5780487  c1.040657-0.4112892,1.9676437-0.9582024,2.7808914-1.6405926c0.8132401-0.6823921,1.3990707-1.6358852,1.8601685-2.6002121  c0.4611816-0.9643974,0.6839752-2.0752563,0.6683655-3.3324947  C127.4329605,21.0784187,127.1462479,20.0485878,126.7349701,19.0078602z M121.2805939,23.9310493  c-0.1573715,0.3630409-0.3147278,0.7260056-0.5966644,1.0781479c-0.2711105,0.2274876-0.5421295,0.4549026-0.9378891,0.6714859  c-0.2711105,0.2274857-0.7805252,0.3084431-1.1544724,0.2757282c-0.4985199-0.0436153-0.8723907-0.0763245-1.2354355-0.2336121  c-0.3630447-0.1573658-0.7151031-0.439373-0.9425888-0.7104816c-0.352066-0.281929-0.4440002-0.6667805-0.6605835-1.0624619  c-0.2165833-0.3957577-0.2975388-0.9051743-0.2539215-1.4037704c-0.0810318-0.5094223,0.0872269-0.997036,0.1199493-1.3709831  c0.1681824-0.4876194,0.3255463-0.8506603,0.5966492-1.0780716c0.2711105-0.2274857,0.5421448-0.4549809,0.9378891-0.671484  c0.3956833-0.216589,0.9051819-0.297617,1.2790527-0.2649078c0.4985962,0.0436211,0.872467,0.0763302,1.2355042,0.233696  c0.3629684,0.1573582,0.7151108,0.4392948,0.9425201,0.7103958c0.3521347,0.2820148,0.5687256,0.6776943,0.6605835,1.0625401  c0.2165833,0.3956795,0.2976151,0.9051819,0.2539978,1.4036999S121.4379501,23.5680847,121.2805939,23.9310493z"/>
</svg>